<?xml version="1.0" standalone="no"?>
<!DOCTYPE svg PUBLIC "-//W3C//DTD SVG 20010904//EN"
 "http://www.w3.org/TR/2001/REC-SVG-20010904/DTD/svg10.dtd">
<svg version="1.0" xmlns="http://www.w3.org/2000/svg"
 width="300.000000pt" height="300.000000pt" viewBox="0 0 300.000000 300.000000"
 preserveAspectRatio="xMidYMid meet">
<metadata>
Created by potrace 1.11, written by Peter Selinger 2001-2013
</metadata>
<g transform="translate(0.000000,300.000000) scale(0.100000,-0.100000)"
fill="#000000" stroke="none">
<path d="M1143 2520 c-42 -17 -46 -42 -39 -219 3 -91 7 -307 8 -479 1 -299 2
-313 20 -323 25 -14 60 -92 52 -114 -6 -14 -16 -16 -56 -12 l-48 6 0 -35 c0
-49 -64 -117 -136 -144 -130 -48 -322 -12 -447 84 -27 21 -55 35 -62 32 -7 -2
-18 -27 -24 -55 -12 -58 -1 -136 26 -181 21 -36 16 -41 -38 -43 -37 -2 -46 -7
-66 -36 -27 -40 -29 -85 -7 -141 14 -35 15 -45 3 -68 -7 -15 -14 -30 -16 -34
-2 -3 9 -21 24 -40 20 -25 22 -28 5 -14 -19 16 -22 17 -22 3 0 -18 55 -67 76
-67 8 0 14 -6 14 -12 0 -14 -43 -104 -61 -129 -32 -44 19 -89 101 -89 73 0
176 53 191 97 3 10 29 9 119 -2 63 -9 138 -15 165 -15 28 1 100 -1 160 -4 61
-3 290 -1 510 5 297 8 509 8 824 -1 421 -12 423 -12 444 8 20 21 20 22 8 595
-10 459 -11 655 -1 981 l13 408 -21 21 c-21 21 -27 21 -279 17 -318 -6 -1253
-3 -1348 4 -38 3 -80 1 -92 -4z m1589 -170 c-10 -35 -9 -1376 1 -1423 l8 -38
-38 8 c-21 4 -334 8 -695 8 l-658 0 0 30 c0 26 8 34 58 62 109 60 229 193 247
273 7 30 9 26 55 -68 35 -70 67 -117 112 -165 l63 -67 55 46 c30 25 56 49 57
53 2 3 -23 22 -53 41 -80 50 -167 149 -215 244 -39 78 -40 84 -37 164 2 45 0
82 -5 82 -4 0 -32 -16 -62 -36 -55 -37 -55 -37 -55 -88 0 -73 -25 -181 -57
-246 -25 -51 -136 -180 -155 -180 -4 0 -8 42 -8 93 0 127 -25 200 -94 275 -42
45 -56 41 -16 -5 18 -20 44 -60 57 -89 23 -50 23 -59 21 -265 -3 -184 -1 -218
14 -244 l16 -31 -96 8 c-54 5 -152 18 -219 29 -449 74 -664 244 -597 472 5 14
12 11 52 -22 134 -111 344 -155 467 -97 62 29 132 102 140 149 7 34 7 34 41
24 28 -9 37 -7 54 8 26 24 25 55 -2 91 -14 18 -16 24 -6 16 15 -12 20 -12 33
2 15 15 29 20 47 17 4 0 6 5 3 12 -2 6 -6 208 -10 447 l-6 435 745 0 745 0 -7
-25z m-1122 -1665 c0 -98 -1 -105 -20 -105 -19 0 -20 7 -20 105 0 98 1 105 20
105 19 0 20 -7 20 -105z m712 69 c16 -16 17 -19 3 -26 -10 -6 -23 -4 -37 6
-30 21 -44 20 -68 -4 -40 -40 -14 -120 39 -120 29 0 51 16 51 37 0 8 -12 13
-30 13 -20 0 -30 5 -30 15 0 11 12 15 45 15 l45 0 0 -39 c0 -30 -6 -44 -22
-55 -26 -19 -77 -21 -111 -5 -66 30 -61 151 7 180 29 12 85 3 108 -17z m-642
-9 c0 -18 5 -25 20 -25 11 0 20 -7 20 -15 0 -8 -9 -15 -20 -15 -16 0 -20 -7
-20 -35 0 -24 6 -39 20 -47 30 -19 24 -30 -12 -26 -32 3 -33 4 -36 56 -2 28
-7 52 -13 52 -5 0 -9 7 -9 15 0 8 5 15 10 15 6 0 10 11 10 25 0 16 6 25 15 25
9 0 15 -9 15 -25z m-380 6 c0 -5 -7 -11 -14 -14 -24 -9 -31 -73 -12 -102 20
-31 59 -33 80 -4 11 16 18 19 32 11 16 -9 15 -12 -9 -36 -51 -51 -139 -22
-153 51 -9 50 17 103 51 103 14 0 25 -4 25 -9z m88 -18 c5 -18 -26 -16 -45 3
-15 14 -14 15 12 12 16 -2 30 -9 33 -15z m62 -62 c0 -56 19 -82 45 -61 10 8
15 30 15 61 0 42 3 49 20 49 18 0 20 -7 20 -70 0 -63 -2 -70 -20 -70 -11 0
-20 5 -20 12 0 9 -3 9 -12 0 -19 -19 -55 -14 -72 10 -9 13 -16 43 -16 70 0 41
3 48 20 48 17 0 20 -7 20 -49z m320 0 c0 -56 19 -82 45 -61 10 8 15 30 15 61
0 42 3 49 20 49 18 0 20 -7 20 -70 0 -63 -2 -70 -20 -70 -11 0 -20 5 -20 10 0
6 -7 6 -18 -1 -27 -17 -68 -4 -76 23 -3 13 -6 42 -6 66 0 35 3 42 20 42 17 0
20 -7 20 -49z m160 37 c0 -9 3 -9 12 0 7 7 20 12 30 12 25 0 12 -28 -15 -32
-19 -3 -22 -10 -25 -55 -3 -45 -6 -53 -23 -53 -17 0 -19 7 -19 70 0 63 2 70
20 70 11 0 20 -5 20 -12z m188 -4 c12 -8 22 -26 22 -40 0 -23 -3 -24 -56 -24
-57 0 -67 -11 -31 -34 12 -8 22 -7 37 2 24 14 50 16 50 2 0 -29 -82 -40 -118
-14 -31 21 -31 87 0 108 29 20 67 20 96 0z m282 -38 c0 -57 11 -71 43 -54 13
6 17 21 17 58 0 43 3 50 20 50 18 0 20 -7 20 -65 0 -51 -4 -67 -16 -72 -9 -3
-19 -1 -23 5 -4 7 -12 8 -21 2 -25 -16 -59 -11 -70 9 -5 11 -10 42 -10 70 0
44 3 51 20 51 18 0 20 -7 20 -54z m153 42 c4 -10 7 -10 18 0 18 17 39 15 39
-3 0 -8 -9 -15 -20 -15 -25 0 -40 -29 -40 -74 0 -25 -4 -36 -15 -36 -12 0 -15
14 -15 70 0 54 3 70 14 70 8 0 16 -6 19 -12z m107 -38 c0 -38 4 -52 19 -60 30
-15 51 12 51 66 0 32 4 44 15 44 12 0 15 -14 15 -70 0 -54 -3 -70 -14 -70 -8
0 -16 6 -19 13 -4 10 -7 10 -18 0 -17 -16 -51 -17 -67 -1 -7 7 -12 38 -12 70
0 45 3 58 15 58 11 0 15 -12 15 -50z"/>
<path d="M2235 2330 c-17 -19 -16 -21 14 -68 17 -27 31 -52 31 -55 0 -4 -68
-7 -151 -7 -130 0 -150 -2 -145 -15 7 -20 0 -19 -35 6 -27 19 -28 22 -14 43
15 22 14 24 -27 51 -37 25 -43 26 -53 11 -7 -9 -24 -16 -39 -16 -21 0 -26 5
-26 25 0 23 -3 25 -50 25 -47 0 -50 -2 -50 -25 0 -24 -2 -25 -70 -25 -73 0
-76 -2 -60 -44 9 -24 14 -26 70 -26 47 0 60 -3 60 -15 0 -12 -17 -15 -95 -15
-52 0 -95 -4 -95 -9 0 -5 4 -21 10 -35 8 -21 16 -26 44 -26 25 0 39 -7 50 -22
24 -33 20 -38 -29 -38 -48 0 -56 -11 -35 -51 9 -16 22 -19 80 -19 56 0 70 -3
70 -15 0 -12 -14 -15 -63 -15 l-64 0 5 -30 c4 -29 5 -30 63 -30 46 0 59 -3 59
-15 0 -12 -16 -15 -83 -15 -46 0 -86 -3 -90 -6 -3 -3 -1 -19 5 -35 10 -29 11
-29 89 -29 72 0 79 -2 79 -20 0 -17 7 -20 50 -20 43 0 50 3 50 20 0 19 7 20
89 20 82 0 91 2 106 23 14 20 14 23 -2 34 -57 39 -58 40 -43 58 13 16 11 20
-20 46 l-34 29 32 0 c22 0 35 6 43 21 10 19 7 25 -17 45 -31 25 -49 30 -59 14
-3 -5 -12 -10 -18 -10 -7 0 2 14 20 30 18 17 43 30 57 30 14 0 30 8 36 18 8
12 13 13 16 5 4 -8 26 -13 59 -13 l54 0 16 -57 c18 -63 78 -188 95 -198 24
-15 -66 -82 -173 -129 -54 -24 -57 -25 -47 -6 10 19 8 20 -67 20 -96 0 -126
-7 -118 -28 3 -9 -6 -27 -22 -44 l-28 -29 112 2 c61 1 115 -1 120 -4 14 -9
162 45 236 86 l66 36 65 -44 c75 -50 207 -98 214 -77 2 7 19 35 38 62 l34 50
-27 6 c-97 21 -233 73 -233 88 0 2 15 27 34 55 19 28 49 87 67 131 l33 80 48
0 c42 0 49 3 62 28 15 29 14 29 -30 60 -52 37 -60 39 -76 12 -11 -17 -24 -20
-95 -20 l-83 0 20 33 c11 17 20 38 20 44 0 12 -108 73 -128 73 -5 0 -17 -9
-27 -20z m-331 -135 c-5 -11 -21 -15 -60 -15 -41 0 -54 4 -54 15 0 12 13 15
60 15 49 0 58 -3 54 -15z m-104 -81 c0 -1 -5 -15 -11 -33 -9 -27 -16 -31 -46
-31 -23 0 -32 4 -27 12 4 6 -4 20 -19 32 l-26 21 64 0 c36 0 65 0 65 -1z m576
-32 c-22 -60 -65 -142 -76 -142 -11 0 -66 85 -93 143 l-17 37 100 0 99 0 -13
-38z m-516 -117 c-7 -8 -25 -15 -41 -15 -19 0 -29 5 -29 15 0 11 11 15 41 15
36 0 40 -2 29 -15z m50 -90 c-8 -10 -31 -15 -66 -15 -41 0 -54 4 -54 15 0 12
14 15 66 15 58 0 65 -2 54 -15z"/>
<path d="M1370 2305 c-10 -12 -7 -28 16 -85 15 -39 31 -73 35 -76 10 -6 79 55
79 70 0 15 -92 106 -107 106 -6 0 -16 -7 -23 -15z"/>
<path d="M1410 2100 c-8 -15 -21 -20 -50 -20 -33 0 -40 -3 -40 -19 0 -38 11
-51 46 -51 l34 0 0 -108 0 -108 -51 -38 -50 -39 38 -39 37 -38 39 45 40 46 27
-26 c58 -55 130 -58 207 -8 l58 38 -65 7 c-83 10 -151 26 -167 40 -16 13 -19
243 -3 253 18 11 10 24 -34 55 -53 36 -52 36 -66 10z"/>
<path d="M1558 1607 c-114 -73 -206 -136 -204 -142 1 -5 14 -16 28 -22 23 -12
38 -4 220 116 108 71 199 134 203 141 8 13 -12 40 -29 39 -6 0 -104 -60 -218
-132z"/>
<path d="M2124 1633 c-25 -82 -84 -217 -125 -285 l-49 -82 20 -20 21 -21 34
37 35 37 2 -167 3 -167 53 -3 52 -3 0 247 0 248 37 72 c21 40 35 76 31 79 -3
3 -29 15 -57 26 -49 18 -52 18 -57 2z"/>
<path d="M2290 1457 l0 -183 -50 -38 c-27 -21 -50 -41 -50 -45 0 -4 6 -16 14
-26 14 -19 16 -19 50 -2 l36 17 0 -79 c0 -120 6 -125 165 -129 120 -3 128 -2
150 18 35 33 41 74 16 99 -12 12 -21 34 -21 50 0 18 -6 31 -16 35 -22 8 -23 7
-37 -50 l-12 -49 -65 0 -65 0 -3 87 -3 87 118 114 117 114 -58 39 c-47 31 -59
35 -66 24 -5 -8 -31 -46 -59 -85 l-51 -70 0 128 0 127 -55 0 -55 0 0 -183z"/>
<path d="M1298 1493 c6 -2 18 -2 25 0 6 3 1 5 -13 5 -14 0 -19 -2 -12 -5z"/>
<path d="M1439 1408 c7 -10 11 -25 7 -33 -3 -9 -2 -13 4 -10 15 10 12 31 -7
46 -16 13 -17 12 -4 -3z"/>
<path d="M1383 1353 c9 -2 23 -2 30 0 6 3 -1 5 -18 5 -16 0 -22 -2 -12 -5z"/>
<path d="M2042 688 c-21 -21 -13 -28 28 -28 22 0 40 4 40 8 0 14 -23 32 -40
32 -9 0 -21 -5 -28 -12z"/>
<path d="M581 1919 c-42 -8 -126 -45 -201 -89 -47 -27 -92 -26 -128 5 l-30 25
-21 -55 c-56 -150 -81 -344 -49 -388 11 -14 13 1 13 85 1 89 5 117 33 201 31
92 43 110 57 87 3 -5 25 -10 49 -10 32 0 59 10 110 41 96 58 167 80 257 81
134 1 251 -52 291 -132 15 -29 18 -31 18 -13 0 33 -64 99 -123 127 -92 42
-181 54 -276 35z"/>
<path d="M709 1726 c-32 -12 -68 -32 -82 -43 -69 -54 -117 -141 -124 -225 -3
-32 -10 -58 -14 -58 -5 0 -18 -9 -29 -20 -19 -19 -19 -19 -42 23 -28 51 -97
91 -143 83 -34 -7 -85 -60 -85 -89 0 -17 3 -16 22 8 26 34 77 56 109 48 31 -7
84 -58 100 -94 14 -35 16 -35 44 -6 13 12 30 28 39 35 9 7 16 28 16 47 0 94
80 214 173 260 60 29 145 43 173 27 12 -7 23 -6 35 1 13 8 25 8 43 -1 15 -6
26 -7 26 -2 0 18 -36 27 -120 28 -69 1 -96 -3 -141 -22z"/>
<path d="M974 1649 c-29 -10 -47 -36 -40 -55 6 -15 8 -15 24 -2 30 26 42 30
36 13 -8 -20 13 -45 37 -45 11 0 24 11 31 25 9 20 8 28 -6 44 -20 22 -55 31
-82 20z"/>
<path d="M775 1582 c-38 -24 -58 -48 -50 -62 9 -15 24 -12 52 10 33 26 41 25
36 -4 -4 -17 2 -28 18 -40 30 -20 31 -20 57 4 30 28 28 64 -4 89 -33 26 -70
27 -109 3z"/>
<path d="M1076 1455 c-8 -33 -67 -62 -144 -71 -42 -4 -62 -11 -62 -20 0 -19
72 -18 137 1 55 16 103 61 103 96 0 28 -27 23 -34 -6z"/>
<path d="M267 1392 c-26 -29 -20 -54 20 -88 34 -28 38 -38 43 -90 5 -55 7 -59
33 -62 37 -4 40 34 7 99 -18 34 -18 35 1 47 12 8 19 23 19 41 0 57 -86 94
-123 53z"/>
<path d="M311 1224 c0 -11 3 -14 6 -6 3 7 2 16 -1 19 -3 4 -6 -2 -5 -13z"/>
<path d="M311 1144 c0 -11 3 -14 6 -6 3 7 2 16 -1 19 -3 4 -6 -2 -5 -13z"/>
</g>
</svg>
